<svg version="1.1" id="Layer_1" xmlns="http://www.w3.org/2000/svg" xmlns:xlink="http://www.w3.org/1999/xlink" x="0px" y="0px"
	 width="100%" viewBox="0 0 586 674" enable-background="new 0 0 586 674" xml:space="preserve">
<path fill="#000000" opacity="1.000000" stroke="none" 
	d="
M1.000000,639.000000 
	C1.000000,440.974182 1.000000,242.948334 1.451062,44.320503 
	C2.566957,43.691032 3.231789,43.639538 3.896624,43.639507 
	C99.422646,43.635128 194.948669,43.632988 290.474701,43.647427 
	C291.962555,43.647652 293.450378,43.854156 294.939392,44.435257 
	C294.944672,89.451065 294.969482,133.996033 294.922241,178.540924 
	C294.917328,183.165924 294.484375,187.790482 294.311096,192.581696 
	C294.372192,192.748169 294.158234,193.030991 293.734009,192.972595 
	C291.182251,192.624786 289.054993,192.085190 286.927185,192.082855 
	C242.292740,192.034103 197.658218,192.040085 153.023727,192.052429 
	C146.263718,192.054291 145.973587,192.370544 145.973389,199.098053 
	C145.970459,293.863068 145.970840,388.628082 145.972565,483.393097 
	C145.972687,490.013580 145.980606,490.023254 152.409256,490.023682 
	C197.543381,490.026611 242.677521,490.019989 287.811646,490.040436 
	C290.135315,490.041473 292.458832,490.262543 294.805542,490.825378 
	C294.859253,540.783264 294.889862,590.296936 294.506470,639.856812 
	C291.996063,639.629944 289.899750,639.118958 287.803253,639.118042 
	C194.367096,639.078491 100.930923,639.083069 7.494762,639.089783 
	C5.665003,639.089905 3.835251,639.177429 1.761169,639.136536 
	C1.344562,639.032532 1.172281,639.016296 1.000000,639.000000 
z"/>
<path fill="#231F20" opacity="1.000000" stroke="none" 
	d="
M294.250000,192.415237 
	C294.484375,187.790482 294.917328,183.165924 294.922241,178.540924 
	C294.969482,133.996033 294.944672,89.451065 295.405579,44.328712 
	C296.702362,43.727253 297.534149,43.682171 298.365906,43.682140 
	C393.090149,43.678574 487.814392,43.676880 582.538635,43.691334 
	C584.025757,43.691563 585.512878,43.892651 587.000000,44.000000 
	C587.000000,242.020889 587.000000,440.041779 586.744019,638.555786 
	C586.325745,639.104126 586.163391,639.159302 585.535034,639.164124 
	C490.137390,639.102356 395.205902,639.086914 300.274384,639.109985 
	C298.489685,639.110413 296.705139,639.566956 294.920502,639.810608 
	C294.889862,590.296936 294.859253,540.783264 294.840149,490.740112 
	C294.851654,490.210632 294.954559,490.057983 295.423218,490.112823 
	C344.968231,490.167664 394.044556,490.167664 442.957336,490.167664 
	C442.957336,390.611664 442.957336,291.730896 442.957336,192.415237 
	C393.155792,192.415237 343.702881,192.415237 294.250000,192.415237 
z"/>
<path fill="#ED1C24" opacity="1.000000" stroke="none" 
	d="
M587.000000,43.531342 
	C585.512878,43.892651 584.025757,43.691563 582.538635,43.691334 
	C487.814392,43.676880 393.090149,43.678574 298.365906,43.682140 
	C297.534149,43.682171 296.702362,43.727253 295.404419,43.857849 
	C293.450378,43.854156 291.962555,43.647652 290.474701,43.647427 
	C194.948669,43.632988 99.422646,43.635128 3.896624,43.639507 
	C3.231789,43.639538 2.566957,43.691032 1.451062,43.859245 
	C1.000000,29.676001 1.000000,15.352002 1.000000,1.045022 
	C196.333344,1.045022 391.666687,1.045022 587.000000,1.045022 
	C587.000000,15.080924 587.000000,29.071804 587.000000,43.531342 
z"/>
<path fill="#ED1C24" opacity="1.000000" stroke="none" 
	d="
M294.506470,639.856812 
	C296.705139,639.566956 298.489685,639.110413 300.274384,639.109985 
	C395.205902,639.086914 490.137390,639.102356 585.666992,639.335632 
	C586.468689,639.773743 586.713623,639.921265 587.000000,640.000000 
	C587.000000,651.658875 587.000000,663.317749 587.000000,674.957336 
	C391.666656,674.957336 196.333328,674.957336 1.000000,674.957336 
	C1.000000,663.588867 1.000000,652.263123 1.201513,640.388184 
	C1.656040,639.685181 1.856863,639.480286 2.005495,639.224243 
	C3.835251,639.177429 5.665003,639.089905 7.494762,639.089783 
	C100.930923,639.083069 194.367096,639.078491 287.803253,639.118042 
	C289.899750,639.118958 291.996063,639.629944 294.506470,639.856812 
z"/>
<path fill="#CA181F" opacity="1.000000" stroke="none" 
	d="
M1.761169,639.136475 
	C1.856863,639.480286 1.656040,639.685181 1.201513,639.919495 
	C1.000000,640.000000 1.000000,639.500000 1.000000,639.250000 
	C1.172281,639.016296 1.344562,639.032532 1.761169,639.136475 
z"/>
<path fill="#CA181F" opacity="1.000000" stroke="none" 
	d="
M587.000000,639.750000 
	C586.713623,639.921265 586.468689,639.773743 586.133057,639.385986 
	C586.163391,639.159302 586.325745,639.104126 586.744019,639.024414 
	C587.000000,639.000000 587.000000,639.500000 587.000000,639.750000 
z"/>
<path fill="#231F20" opacity="1.000000" stroke="none" 
	d="
M294.817047,490.295898 
	C292.458832,490.262543 290.135315,490.041473 287.811646,490.040436 
	C242.677521,490.019989 197.543381,490.026611 152.409256,490.023682 
	C145.980606,490.023254 145.972687,490.013580 145.972565,483.393097 
	C145.970840,388.628082 145.970459,293.863068 145.973389,199.098053 
	C145.973587,192.370544 146.263718,192.054291 153.023727,192.052429 
	C197.658218,192.040085 242.292740,192.034103 286.927185,192.082855 
	C289.054993,192.085190 291.182251,192.624786 293.906311,193.345413 
	C294.522614,290.558746 294.540009,387.340881 294.578339,484.122986 
	C294.579102,486.101349 294.823700,488.079651 294.954529,490.057983 
	C294.954559,490.057983 294.851654,490.210632 294.817047,490.295898 
z"/>
<path fill="#FFFFFF" opacity="1.000000" stroke="none" 
	d="
M295.423218,490.112823 
	C294.823700,488.079651 294.579102,486.101349 294.578339,484.122986 
	C294.540009,387.340881 294.522614,290.558746 294.330566,193.403809 
	C294.158234,193.030991 294.372192,192.748169 294.311096,192.581696 
	C343.702881,192.415237 393.155792,192.415237 442.957336,192.415237 
	C442.957336,291.730896 442.957336,390.611664 442.957336,490.167664 
	C394.044556,490.167664 344.968231,490.167664 295.423218,490.112823 
z"/>
</svg>